# xmcd
#
# Track frame offsets: 
#        150
#        14595
#        31089
#        45759
#        62721
#        76083
#        107980
#        128987
#        149319
#        165161
#        185555
#        216285
#        233934
#        254214
#
# Disc length: 3679 seconds
#
# Revision: 2
# Processed by: cddbd v1.5.2PL0 Copyright (c) Steve Scherf et al.
# Submitted via: ExactAudioCopyFreeDBPlugin 1.0
#
DISCID=be0e5d0e
DTITLE=Mary Coughlan - Live In Galway
DYEAR=2004
DGENRE=Blues
TTITLE0=Laziest Girl
TTITLE1=The Beach
TTITLE2=Hearts
TTITLE3=Country Fair Dance
TTITLE4=I Want to be Seduced
TTITLE5=Ancient Rain
TTITLE6=Sweet Victim
TTITLE7=Not Up to Scratch
TTITLE8=Just A Friend
TTITLE9=Blue Surrender
TTITLE10=Magdalan Laundry
TTITLE11=My Land is Too Green
TTITLE12=Delaney
TTITLE13=Nobody's Business - Tango
EXTD=Submitted by: ecto@home.com\nhttp://members.home.net/ecto/
EXTT0=
EXTT1=
EXTT2=
EXTT3=
EXTT4=
EXTT5=
EXTT6=
EXTT7=
EXTT8=
EXTT9=
EXTT10=
EXTT11=
EXTT12=
EXTT13=
PLAYORDER=
